<svg width="10" height="6" viewBox="0 0 10 6" fill="none" xmlns="http://www.w3.org/2000/svg">
<g clip-path="url(#clip0_1004_13)">
<path d="M0.673 0.163499H9.327C9.45999 0.163287 9.59004 0.202603 9.70064 0.276444C9.81124 0.350285 9.89741 0.455327 9.9482 0.578233C9.99899 0.701138 10.0121 0.836358 9.98591 0.966737C9.9597 1.09712 9.89534 1.21677 9.801 1.3105L5.476 5.6395C5.34965 5.76554 5.17847 5.83632 5 5.83632C4.82153 5.83632 4.65035 5.76554 4.524 5.6395L0.199 1.3105C0.10466 1.21677 0.0402999 1.09712 0.014091 0.966737C-0.012118 0.836358 0.00100625 0.701138 0.0517973 0.578233C0.102588 0.455327 0.188756 0.350285 0.299359 0.276444C0.409962 0.202603 0.540013 0.163287 0.673 0.163499V0.163499Z" fill="#00103B"/>
</g>
<defs>
<clipPath id="clip0_1004_13">
<rect width="10" height="5.673" fill="white" transform="translate(0 0.163498)"/>
</clipPath>
</defs>
</svg>
