<svg width="9" height="14" viewBox="0 0 9 14" fill="none" xmlns="http://www.w3.org/2000/svg">
<g clip-path="url(#clip0_1004_41)">
<path d="M8.73563 4.11797C9.08719 3.77618 9.08719 3.2211 8.73563 2.8793C8.38407 2.53751 7.81313 2.53751 7.46157 2.8793L4.5 5.76133L1.53563 2.88204C1.18407 2.54024 0.613129 2.54024 0.261566 2.88204C-0.0899963 3.22383 -0.0899963 3.77891 0.261566 4.12071L3.22594 7.00001L0.264379 9.88204C-0.0871839 10.2238 -0.0871839 10.7789 0.264379 11.1207C0.615941 11.4625 1.18688 11.4625 1.53844 11.1207L4.5 8.23868L7.46438 11.118C7.81594 11.4598 8.38688 11.4598 8.73844 11.118C9.09 10.7762 9.09 10.2211 8.73844 9.8793L5.77407 7.00001L8.73563 4.11797Z" fill="#333333"/>
</g>
<defs>
<clipPath id="clip0_1004_41">
<rect width="9" height="14" fill="white"/>
</clipPath>
</defs>
</svg>
