<svg width="18" height="16" viewBox="0 0 18 16" fill="none" xmlns="http://www.w3.org/2000/svg">
<path d="M16.7097 8.70625C17.0993 8.31563 17.0993 7.68125 16.7097 7.29063L12.7205 3.29063C12.3309 2.9 11.6982 2.9 11.3086 3.29063C10.9191 3.68125 10.9191 4.31563 11.3086 4.70625L13.5962 7H7.02951C6.47787 7 6.03219 7.44687 6.03219 8C6.03219 8.55313 6.47787 9 7.02951 9H13.5962L11.3086 11.2937C10.9191 11.6844 10.9191 12.3188 11.3086 12.7094C11.6982 13.1 12.3309 13.1 12.7205 12.7094L16.7097 8.70938V8.70625ZM6.03219 3C6.58383 3 7.02951 2.55313 7.02951 2C7.02951 1.44687 6.58383 1 6.03219 1H4.03755C2.38574 1 1.04559 2.34375 1.04559 4V12C1.04559 13.6562 2.38574 15 4.03755 15H6.03219C6.58383 15 7.02951 14.5531 7.02951 14C7.02951 13.4469 6.58383 13 6.03219 13H4.03755C3.48591 13 3.04023 12.5531 3.04023 12V4C3.04023 3.44687 3.48591 3 4.03755 3H6.03219Z" fill="#495769"/>
</svg>
