<svg width="14" height="15" viewBox="0 0 14 15" fill="none" xmlns="http://www.w3.org/2000/svg">
<g clip-path="url(#clip0_1004_52)">
<path d="M7.875 3.48867V10.125C7.875 10.609 7.48398 11 7 11C6.51602 11 6.125 10.609 6.125 10.125V3.48867L4.11797 5.49571C3.77617 5.8375 3.22109 5.8375 2.8793 5.49571C2.5375 5.15391 2.5375 4.59883 2.8793 4.25703L6.3793 0.757034C6.72109 0.415237 7.27617 0.415237 7.61797 0.757034L11.118 4.25703C11.4598 4.59883 11.4598 5.15391 11.118 5.49571C10.7762 5.8375 10.2211 5.8375 9.8793 5.49571L7.875 3.48867ZM1.75 10.125H5.25C5.25 11.0902 6.03477 11.875 7 11.875C7.96523 11.875 8.75 11.0902 8.75 10.125H12.25C13.2152 10.125 14 10.9098 14 11.875V12.75C14 13.7152 13.2152 14.5 12.25 14.5H1.75C0.784766 14.5 0 13.7152 0 12.75V11.875C0 10.9098 0.784766 10.125 1.75 10.125ZM11.8125 12.9688C12.1762 12.9688 12.4688 12.6762 12.4688 12.3125C12.4688 11.9488 12.1762 11.6563 11.8125 11.6563C11.4488 11.6563 11.1562 11.9488 11.1562 12.3125C11.1562 12.6762 11.4488 12.9688 11.8125 12.9688Z" fill="#495769"/>
</g>
<defs>
<clipPath id="clip0_1004_52">
<rect width="14" height="14" fill="white" transform="translate(0 0.5)"/>
</clipPath>
</defs>
</svg>
