<svg width="17" height="16" viewBox="0 0 17 16" fill="none" xmlns="http://www.w3.org/2000/svg">
<g clip-path="url(#clip0_1004_81)">
<path d="M8.14478 16C12.5517 16 16.1233 12.4187 16.1233 8C16.1233 3.58125 12.5517 0 8.14478 0C3.73788 0 0.166229 3.58125 0.166229 8C0.166229 12.4187 3.73788 16 8.14478 16ZM5.45825 5.16563C5.70447 4.46875 6.36519 4 7.10383 4H8.92082C10.0085 4 10.8874 4.88438 10.8874 5.97188C10.8874 6.67813 10.5103 7.33125 9.89944 7.68437L8.89277 8.2625C8.88654 8.66875 8.55306 9 8.14478 9C7.73027 9 7.39679 8.66563 7.39679 8.25V7.82812C7.39679 7.55937 7.54016 7.3125 7.7739 7.17812L9.15457 6.38438C9.30105 6.3 9.39143 6.14375 9.39143 5.975C9.39143 5.7125 9.1795 5.50313 8.92082 5.50313H7.10383C6.99786 5.50313 6.90437 5.56875 6.87008 5.66875L6.85762 5.70625C6.72049 6.09688 6.29039 6.3 5.90393 6.1625C5.51747 6.025 5.31177 5.59375 5.4489 5.20625L5.46137 5.16875L5.45825 5.16563ZM9.1421 11C9.1421 11.5531 8.69642 12 8.14478 12C7.59314 12 7.14746 11.5531 7.14746 11C7.14746 10.4469 7.59314 10 8.14478 10C8.69642 10 9.1421 10.4469 9.1421 11Z" fill="#495769"/>
</g>
<defs>
<clipPath id="clip0_1004_81">
<rect width="15.9571" height="16" fill="white" transform="translate(0.166229)"/>
</clipPath>
</defs>
</svg>
