<svg width="13" height="14" viewBox="0 0 13 14" fill="none" xmlns="http://www.w3.org/2000/svg">
<g clip-path="url(#clip0_1004_85)">
<path d="M6.10867 0C5.62598 0 5.23601 0.391016 5.23601 0.875V1.4C3.24527 1.80469 1.7454 3.57109 1.7454 5.6875V6.20156C1.7454 7.48672 1.27362 8.72812 0.42278 9.69062L0.220979 9.91758C-0.00809278 10.1746 -0.0626337 10.5438 0.0764456 10.8582C0.215525 11.1727 0.529135 11.375 0.872743 11.375H11.3446C11.6882 11.375 11.9991 11.1727 12.1409 10.8582C12.2827 10.5438 12.2254 10.1746 11.9964 9.91758L11.7946 9.69062C10.9437 8.72812 10.4719 7.48945 10.4719 6.20156V5.6875C10.4719 3.57109 8.97206 1.80469 6.98132 1.4V0.875C6.98132 0.391016 6.59135 0 6.10867 0ZM7.34402 13.4887C7.67126 13.1605 7.85398 12.7148 7.85398 12.25H6.10867H4.36336C4.36336 12.7148 4.54607 13.1605 4.87332 13.4887C5.20056 13.8168 5.64507 14 6.10867 14C6.57227 14 7.01677 13.8168 7.34402 13.4887Z" fill="#495769"/>
</g>
<defs>
<clipPath id="clip0_1004_85">
<rect width="12.2172" height="14" fill="white"/>
</clipPath>
</defs>
</svg>
