<svg width="14" height="14" viewBox="0 0 14 14" fill="none" xmlns="http://www.w3.org/2000/svg">
<g clip-path="url(#clip0_1004_49)">
<path d="M3.5 0C2.53477 0 1.75 0.784766 1.75 1.75V4.375H3.5V1.75H9.69883L10.5 2.55117V4.375H12.25V2.55117C12.25 2.08633 12.0668 1.64062 11.7387 1.3125L10.9375 0.511328C10.6094 0.183203 10.1637 0 9.69883 0H3.5ZM10.5 9.625V10.5V12.25H3.5V10.5V10.0625V9.625H10.5ZM12.25 10.5H13.125C13.609 10.5 14 10.109 14 9.625V7C14 6.03477 13.2152 5.25 12.25 5.25H1.75C0.784766 5.25 0 6.03477 0 7V9.625C0 10.109 0.391016 10.5 0.875 10.5H1.75V12.25C1.75 13.2152 2.53477 14 3.5 14H10.5C11.4652 14 12.25 13.2152 12.25 12.25V10.5ZM11.8125 8.09375C11.4488 8.09375 11.1562 7.80117 11.1562 7.4375C11.1562 7.07383 11.4488 6.78125 11.8125 6.78125C12.1762 6.78125 12.4688 7.07383 12.4688 7.4375C12.4688 7.80117 12.1762 8.09375 11.8125 8.09375Z" fill="#00103B"/>
</g>
<defs>
<clipPath id="clip0_1004_49">
<rect width="14" height="14" fill="white"/>
</clipPath>
</defs>
</svg>
