<svg width="17" height="16" viewBox="0 0 17 16" fill="none" xmlns="http://www.w3.org/2000/svg">
<g clip-path="url(#clip0_1004_79)">
<path d="M15.7395 5.20625C15.8392 5.47813 15.7551 5.78125 15.54 5.975L14.1906 7.20625C14.2248 7.46563 14.2435 7.73125 14.2435 8C14.2435 8.26875 14.2248 8.53437 14.1906 8.79375L15.54 10.025C15.7551 10.2187 15.8392 10.5219 15.7395 10.7937C15.6024 11.1656 15.4372 11.5219 15.2471 11.8656L15.1006 12.1187C14.8949 12.4625 14.6643 12.7875 14.4118 13.0938C14.228 13.3187 13.9225 13.3937 13.6483 13.3062L11.9123 12.7531C11.4947 13.075 11.0334 13.3438 10.541 13.5469L10.1514 15.3313C10.0891 15.6156 9.87091 15.8406 9.58418 15.8875C9.15409 15.9594 8.71153 15.9969 8.25962 15.9969C7.80771 15.9969 7.36515 15.9594 6.93505 15.8875C6.64833 15.8406 6.43016 15.6156 6.36783 15.3313L5.97825 13.5469C5.48583 13.3438 5.02457 13.075 4.60694 12.7531L2.8741 13.3094C2.59983 13.3969 2.2944 13.3188 2.11052 13.0969C1.85808 12.7906 1.62745 12.4656 1.42175 12.1219L1.27527 11.8687C1.08516 11.525 0.919974 11.1687 0.782843 10.7969C0.683111 10.525 0.76726 10.2219 0.982307 10.0281L2.3318 8.79688C2.29752 8.53438 2.27882 8.26875 2.27882 8C2.27882 7.73125 2.29752 7.46563 2.3318 7.20625L0.982307 5.975C0.76726 5.78125 0.683111 5.47813 0.782843 5.20625C0.919974 4.83438 1.08516 4.47813 1.27527 4.13438L1.42175 3.88125C1.62745 3.5375 1.85808 3.2125 2.11052 2.90625C2.2944 2.68125 2.59983 2.60625 2.8741 2.69375L4.61005 3.24688C5.02768 2.925 5.48894 2.65625 5.98137 2.45312L6.37095 0.66875C6.43328 0.384375 6.65144 0.159375 6.93817 0.1125C7.36826 0.0375 7.81083 0 8.26274 0C8.71465 0 9.15721 0.0375 9.5873 0.109375C9.87403 0.15625 10.0922 0.38125 10.1545 0.665625L10.5441 2.45C11.0365 2.65313 11.4978 2.92188 11.9154 3.24375L13.6514 2.69062C13.9256 2.60312 14.2311 2.68125 14.4149 2.90313C14.6674 3.20938 14.898 3.53437 15.1037 3.87812L15.2502 4.13125C15.4403 4.475 15.6055 4.83125 15.7426 5.20312L15.7395 5.20625ZM8.26274 10.5C9.64028 10.5 10.756 9.38125 10.756 8C10.756 6.61875 9.64028 5.5 8.26274 5.5C6.88519 5.5 5.76944 6.61875 5.76944 8C5.76944 9.38125 6.88519 10.5 8.26274 10.5Z" fill="#495769"/>
</g>
<defs>
<clipPath id="clip0_1004_79">
<rect width="15.9571" height="16" fill="white" transform="translate(0.28418)"/>
</clipPath>
</defs>
</svg>
