<svg width="16" height="16" viewBox="0 0 16 16" fill="none" xmlns="http://www.w3.org/2000/svg">
<path d="M4 0C2.89688 0 2 0.896875 2 2V14C2 15.1031 2.89688 16 4 16H12C13.1031 16 14 15.1031 14 14V5H10C9.44687 5 9 4.55313 9 4V0H4ZM10 0V4H14L10 0ZM8.75 12.75C8.75 13.1656 8.41563 13.5 8 13.5C7.58437 13.5 7.25 13.1656 7.25 12.75V9.55937L6.28125 10.5281C5.9875 10.8219 5.5125 10.8219 5.22187 10.5281C4.93125 10.2344 4.92812 9.75938 5.22187 9.46875L7.47188 7.21875C7.76563 6.925 8.24062 6.925 8.53125 7.21875L10.7812 9.46875C11.075 9.7625 11.075 10.2375 10.7812 10.5281C10.4875 10.8187 10.0125 10.8219 9.72188 10.5281L8.75313 9.55937V12.75H8.75Z" fill="#495769"/>
</svg>
